<mxfile host="app.diagrams.net" agent="Mozilla/5.0 (Windows NT 10.0; Win64; x64) AppleWebKit/537.36 (KHTML, like Gecko) Chrome/141.0.0.0 Safari/537.36" version="28.2.3">
  <diagram name="Page-1" id="zbbegBBSre_oQoZ3Mn-0">
    <mxGraphModel dx="682" dy="846" grid="1" gridSize="10" guides="1" tooltips="1" connect="1" arrows="1" fold="1" page="1" pageScale="1" pageWidth="850" pageHeight="1100" math="0" shadow="0">
      <root>
        <mxCell id="0" />
        <mxCell id="1" parent="0" />
        <mxCell id="Gdr_BZg6z6cCifK96JbI-54" value="" style="edgeStyle=orthogonalEdgeStyle;rounded=0;orthogonalLoop=1;jettySize=auto;html=1;fontColor=light-dark(#000000,#000000);labelBackgroundColor=none;" parent="1" source="Gdr_BZg6z6cCifK96JbI-41" target="Gdr_BZg6z6cCifK96JbI-53" edge="1">
          <mxGeometry relative="1" as="geometry" />
        </mxCell>
        <mxCell id="yptgTZZ8veA4d7DE2FyD-4" style="edgeStyle=orthogonalEdgeStyle;rounded=0;orthogonalLoop=1;jettySize=auto;html=1;exitX=1;exitY=0.5;exitDx=0;exitDy=0;entryX=0;entryY=0.5;entryDx=0;entryDy=0;" edge="1" parent="1" source="Gdr_BZg6z6cCifK96JbI-41" target="Gdr_BZg6z6cCifK96JbI-64">
          <mxGeometry relative="1" as="geometry" />
        </mxCell>
        <mxCell id="yptgTZZ8veA4d7DE2FyD-6" style="edgeStyle=orthogonalEdgeStyle;rounded=0;orthogonalLoop=1;jettySize=auto;html=1;entryX=0.5;entryY=0;entryDx=0;entryDy=0;" edge="1" parent="1">
          <mxGeometry relative="1" as="geometry">
            <mxPoint x="1060" y="180" as="sourcePoint" />
            <mxPoint x="1159.98" y="340" as="targetPoint" />
            <Array as="points">
              <mxPoint x="1060" y="220" />
              <mxPoint x="1160" y="220" />
            </Array>
          </mxGeometry>
        </mxCell>
        <mxCell id="Gdr_BZg6z6cCifK96JbI-41" value="Preprocessing" style="whiteSpace=wrap;html=1;rounded=0;fillColor=light-dark(#91479B,#91479B);strokeColor=none;fontColor=light-dark(#000000,#000000);labelBackgroundColor=none;" parent="1" vertex="1">
          <mxGeometry x="1000" y="120" width="120" height="60" as="geometry" />
        </mxCell>
        <mxCell id="Gdr_BZg6z6cCifK96JbI-81" style="edgeStyle=orthogonalEdgeStyle;rounded=0;orthogonalLoop=1;jettySize=auto;html=1;exitX=1;exitY=0.5;exitDx=0;exitDy=0;entryX=0;entryY=0.5;entryDx=0;entryDy=0;fontColor=light-dark(#000000,#000000);labelBackgroundColor=none;" parent="1" source="Gdr_BZg6z6cCifK96JbI-44" target="Gdr_BZg6z6cCifK96JbI-73" edge="1">
          <mxGeometry relative="1" as="geometry">
            <Array as="points">
              <mxPoint x="1440" y="642" />
              <mxPoint x="1440" y="642" />
            </Array>
          </mxGeometry>
        </mxCell>
        <mxCell id="yptgTZZ8veA4d7DE2FyD-5" style="edgeStyle=orthogonalEdgeStyle;rounded=0;orthogonalLoop=1;jettySize=auto;html=1;exitX=0.5;exitY=1;exitDx=0;exitDy=0;" edge="1" parent="1" source="Gdr_BZg6z6cCifK96JbI-44" target="Gdr_BZg6z6cCifK96JbI-50">
          <mxGeometry relative="1" as="geometry">
            <mxPoint x="1120.148148148148" y="700" as="targetPoint" />
            <Array as="points">
              <mxPoint x="1140" y="690" />
              <mxPoint x="1280" y="690" />
            </Array>
          </mxGeometry>
        </mxCell>
        <mxCell id="Gdr_BZg6z6cCifK96JbI-44" value="Front end" style="whiteSpace=wrap;html=1;rounded=0;fillColor=light-dark(#A18EB3,#A18EB3);fontColor=light-dark(#000000,#000000);strokeColor=#432D57;labelBackgroundColor=none;" parent="1" vertex="1">
          <mxGeometry x="1000" y="612" width="280" height="60" as="geometry" />
        </mxCell>
        <mxCell id="Gdr_BZg6z6cCifK96JbI-49" value="17-11-2025 Submitting Final report" style="rounded=0;whiteSpace=wrap;html=1;fillColor=light-dark(#4A890C,#4A890C);fontColor=light-dark(#000000,#000000);strokeColor=#2D7600;labelBackgroundColor=none;" parent="1" vertex="1">
          <mxGeometry x="1800" y="120" width="120" height="60" as="geometry" />
        </mxCell>
        <mxCell id="Gdr_BZg6z6cCifK96JbI-50" value="User guide" style="whiteSpace=wrap;html=1;rounded=0;fillColor=light-dark(#A18EB3,#A18EB3);fontColor=light-dark(#000000,#000000);strokeColor=#432D57;labelBackgroundColor=none;" parent="1" vertex="1">
          <mxGeometry x="1160" y="702" width="240" height="60" as="geometry" />
        </mxCell>
        <mxCell id="Gdr_BZg6z6cCifK96JbI-53" value="defining model evaluation matrixes" style="whiteSpace=wrap;html=1;rounded=0;fillColor=light-dark(#91479B,#91479B);strokeColor=none;fontColor=light-dark(#000000,#000000);labelBackgroundColor=none;" parent="1" vertex="1">
          <mxGeometry x="1000" y="260" width="120" height="60" as="geometry" />
        </mxCell>
        <mxCell id="Gdr_BZg6z6cCifK96JbI-78" style="edgeStyle=orthogonalEdgeStyle;rounded=0;orthogonalLoop=1;jettySize=auto;html=1;exitX=1;exitY=0.5;exitDx=0;exitDy=0;entryX=0;entryY=0.5;entryDx=0;entryDy=0;fontColor=light-dark(#000000,#000000);labelBackgroundColor=none;" parent="1" source="Gdr_BZg6z6cCifK96JbI-59" target="Gdr_BZg6z6cCifK96JbI-77" edge="1">
          <mxGeometry relative="1" as="geometry" />
        </mxCell>
        <mxCell id="Gdr_BZg6z6cCifK96JbI-59" value="KNN" style="whiteSpace=wrap;html=1;rounded=0;fillColor=light-dark(#7931AF,#7931AF);strokeColor=none;fontColor=light-dark(#000000,#000000);labelBackgroundColor=none;" parent="1" vertex="1">
          <mxGeometry x="1000" y="340" width="400" height="60" as="geometry" />
        </mxCell>
        <mxCell id="Gdr_BZg6z6cCifK96JbI-64" value="Test cases and Documentation" style="rounded=0;whiteSpace=wrap;html=1;fillColor=light-dark(#63B076,#63B076);fontColor=light-dark(#000000,#000000);strokeColor=none;labelBackgroundColor=none;" parent="1" vertex="1">
          <mxGeometry x="1160" y="120" width="120" height="60" as="geometry" />
        </mxCell>
        <mxCell id="Gdr_BZg6z6cCifK96JbI-66" value="Test cases and Documentation" style="rounded=0;whiteSpace=wrap;html=1;fillColor=light-dark(#63B076,#63B076);fontColor=light-dark(#000000,#000000);strokeColor=none;labelBackgroundColor=none;" parent="1" vertex="1">
          <mxGeometry x="1160" y="430" width="240" height="60" as="geometry" />
        </mxCell>
        <mxCell id="Gdr_BZg6z6cCifK96JbI-97" style="edgeStyle=orthogonalEdgeStyle;rounded=0;orthogonalLoop=1;jettySize=auto;html=1;exitX=0.5;exitY=1;exitDx=0;exitDy=0;fontColor=light-dark(#000000,#000000);labelBackgroundColor=none;" parent="1" source="Gdr_BZg6z6cCifK96JbI-73" target="Gdr_BZg6z6cCifK96JbI-96" edge="1">
          <mxGeometry relative="1" as="geometry" />
        </mxCell>
        <mxCell id="Gdr_BZg6z6cCifK96JbI-73" value="assembling final product" style="rounded=0;whiteSpace=wrap;html=1;fillColor=light-dark(#FFADCD,#FFADCD);fontColor=light-dark(#000000,#000000);strokeColor=#6F0000;labelBackgroundColor=none;" parent="1" vertex="1">
          <mxGeometry x="1470" y="612" width="120" height="60" as="geometry" />
        </mxCell>
        <mxCell id="Gdr_BZg6z6cCifK96JbI-89" style="edgeStyle=orthogonalEdgeStyle;rounded=0;orthogonalLoop=1;jettySize=auto;html=1;exitX=0.5;exitY=1;exitDx=0;exitDy=0;entryX=0.5;entryY=0;entryDx=0;entryDy=0;fontColor=light-dark(#000000,#000000);labelBackgroundColor=none;" parent="1" source="Gdr_BZg6z6cCifK96JbI-74" target="Gdr_BZg6z6cCifK96JbI-75" edge="1">
          <mxGeometry relative="1" as="geometry" />
        </mxCell>
        <mxCell id="Gdr_BZg6z6cCifK96JbI-74" value="13-10-2025 Prototype presentation" style="rounded=0;whiteSpace=wrap;html=1;fillColor=light-dark(#4A890C,#4A890C);fontColor=light-dark(#000000,#000000);strokeColor=#2D7600;labelBackgroundColor=none;" parent="1" vertex="1">
          <mxGeometry x="1000" y="430" width="120" height="60" as="geometry" />
        </mxCell>
        <mxCell id="Gdr_BZg6z6cCifK96JbI-75" value="Working on the feedback from the prototype presentation" style="rounded=0;whiteSpace=wrap;html=1;fillColor=light-dark(#4A890C,#4A890C);fontColor=light-dark(#000000,#000000);strokeColor=#2D7600;labelBackgroundColor=none;" parent="1" vertex="1">
          <mxGeometry x="1000" y="510" width="120" height="60" as="geometry" />
        </mxCell>
        <mxCell id="Gdr_BZg6z6cCifK96JbI-80" style="edgeStyle=orthogonalEdgeStyle;rounded=0;orthogonalLoop=1;jettySize=auto;html=1;exitX=0.5;exitY=1;exitDx=0;exitDy=0;entryX=0.5;entryY=0;entryDx=0;entryDy=0;fontColor=light-dark(#000000,#000000);labelBackgroundColor=none;" parent="1" source="Gdr_BZg6z6cCifK96JbI-77" target="Gdr_BZg6z6cCifK96JbI-73" edge="1">
          <mxGeometry relative="1" as="geometry" />
        </mxCell>
        <mxCell id="Gdr_BZg6z6cCifK96JbI-77" value="Optimizing Workflow" style="rounded=0;whiteSpace=wrap;html=1;fillColor=light-dark(#FFADCD,#FFADCD);strokeColor=#6F0000;fontColor=light-dark(#000000,#000000);labelBackgroundColor=none;" parent="1" vertex="1">
          <mxGeometry x="1470" y="340" width="120" height="60" as="geometry" />
        </mxCell>
        <mxCell id="yptgTZZ8veA4d7DE2FyD-9" style="edgeStyle=orthogonalEdgeStyle;rounded=0;orthogonalLoop=1;jettySize=auto;html=1;exitX=0.5;exitY=0;exitDx=0;exitDy=0;entryX=0.5;entryY=1;entryDx=0;entryDy=0;" edge="1" parent="1" source="Gdr_BZg6z6cCifK96JbI-82" target="Gdr_BZg6z6cCifK96JbI-49">
          <mxGeometry relative="1" as="geometry" />
        </mxCell>
        <mxCell id="Gdr_BZg6z6cCifK96JbI-82" value="Writing final report" style="rounded=0;whiteSpace=wrap;html=1;fillColor=light-dark(#4A890C,#4A890C);fontColor=light-dark(#000000,#000000);strokeColor=#2D7600;labelBackgroundColor=none;" parent="1" vertex="1">
          <mxGeometry x="1190" y="230" width="740" height="60" as="geometry" />
        </mxCell>
        <mxCell id="Gdr_BZg6z6cCifK96JbI-83" value="10-11-2025 Final presentation" style="rounded=0;whiteSpace=wrap;html=1;fillColor=light-dark(#4A890C,#4A890C);fontColor=light-dark(#000000,#000000);strokeColor=#2D7600;labelBackgroundColor=none;" parent="1" vertex="1">
          <mxGeometry x="1640" y="120" width="120" height="60" as="geometry" />
        </mxCell>
        <mxCell id="Gdr_BZg6z6cCifK96JbI-85" style="edgeStyle=orthogonalEdgeStyle;rounded=0;orthogonalLoop=1;jettySize=auto;html=1;exitX=1;exitY=0.5;exitDx=0;exitDy=0;entryX=0;entryY=0.5;entryDx=0;entryDy=0;fontColor=light-dark(#000000,#000000);labelBackgroundColor=none;" parent="1" source="Gdr_BZg6z6cCifK96JbI-84" target="Gdr_BZg6z6cCifK96JbI-83" edge="1">
          <mxGeometry relative="1" as="geometry" />
        </mxCell>
        <mxCell id="Gdr_BZg6z6cCifK96JbI-84" value="Making PowerPoint for final presentation" style="rounded=0;whiteSpace=wrap;html=1;fillColor=light-dark(#4A890C,#4A890C);fontColor=light-dark(#000000,#000000);strokeColor=#2D7600;labelBackgroundColor=none;" parent="1" vertex="1">
          <mxGeometry x="1470" y="120" width="120" height="60" as="geometry" />
        </mxCell>
        <mxCell id="Gdr_BZg6z6cCifK96JbI-96" value="Test cases and Documentation" style="rounded=0;whiteSpace=wrap;html=1;fillColor=light-dark(#63B076,#63B076);fontColor=light-dark(#000000,#000000);strokeColor=none;labelBackgroundColor=none;" parent="1" vertex="1">
          <mxGeometry x="1470" y="702" width="120" height="60" as="geometry" />
        </mxCell>
        <mxCell id="Gdr_BZg6z6cCifK96JbI-106" value="13-10/19-10" style="text;html=1;align=center;verticalAlign=middle;whiteSpace=wrap;rounded=0;fontColor=light-dark(#000000,#000000);labelBackgroundColor=none;" parent="1" vertex="1">
          <mxGeometry x="1000" y="70" width="120" height="30" as="geometry" />
        </mxCell>
        <mxCell id="Gdr_BZg6z6cCifK96JbI-107" value="20-10/26-10" style="text;html=1;align=center;verticalAlign=middle;whiteSpace=wrap;rounded=0;fontColor=light-dark(#000000,#000000);labelBackgroundColor=none;" parent="1" vertex="1">
          <mxGeometry x="1120" y="70" width="120" height="30" as="geometry" />
        </mxCell>
        <mxCell id="Gdr_BZg6z6cCifK96JbI-108" value="27-10/02-11" style="text;html=1;align=center;verticalAlign=middle;whiteSpace=wrap;rounded=0;fontColor=light-dark(#000000,#000000);labelBackgroundColor=none;" parent="1" vertex="1">
          <mxGeometry x="1280" y="70" width="120" height="30" as="geometry" />
        </mxCell>
        <mxCell id="Gdr_BZg6z6cCifK96JbI-109" value="03-11/09-11" style="text;html=1;align=center;verticalAlign=middle;whiteSpace=wrap;rounded=0;fontColor=light-dark(#000000,#000000);labelBackgroundColor=none;" parent="1" vertex="1">
          <mxGeometry x="1470" y="70" width="120" height="30" as="geometry" />
        </mxCell>
        <mxCell id="Gdr_BZg6z6cCifK96JbI-110" value="10-11/16-11" style="text;html=1;align=center;verticalAlign=middle;whiteSpace=wrap;rounded=0;fontColor=light-dark(#000000,#000000);labelBackgroundColor=none;" parent="1" vertex="1">
          <mxGeometry x="1640" y="70" width="120" height="30" as="geometry" />
        </mxCell>
        <mxCell id="Gdr_BZg6z6cCifK96JbI-111" value="17-11/23-11" style="text;html=1;align=center;verticalAlign=middle;whiteSpace=wrap;rounded=0;fontColor=light-dark(#000000,#000000);labelBackgroundColor=none;" parent="1" vertex="1">
          <mxGeometry x="1800" y="70" width="120" height="30" as="geometry" />
        </mxCell>
        <mxCell id="Gdr_BZg6z6cCifK96JbI-120" value="" style="group;fontColor=light-dark(#000000,#000000);labelBackgroundColor=none;" parent="1" vertex="1" connectable="0">
          <mxGeometry x="1670" y="652" width="250" height="160" as="geometry" />
        </mxCell>
        <mxCell id="Gdr_BZg6z6cCifK96JbI-119" value="" style="rounded=0;whiteSpace=wrap;html=1;fontColor=light-dark(#000000,#000000);labelBackgroundColor=none;" parent="Gdr_BZg6z6cCifK96JbI-120" vertex="1">
          <mxGeometry x="60" y="1" width="190" height="109" as="geometry" />
        </mxCell>
        <mxCell id="Gdr_BZg6z6cCifK96JbI-113" value="" style="rounded=0;whiteSpace=wrap;html=1;fillColor=light-dark(#4A890C,#4A890C);fontColor=light-dark(#000000,#000000);labelBackgroundColor=none;" parent="Gdr_BZg6z6cCifK96JbI-120" vertex="1">
          <mxGeometry x="70" y="11" width="40" height="40" as="geometry" />
        </mxCell>
        <mxCell id="Gdr_BZg6z6cCifK96JbI-115" value="" style="rounded=0;whiteSpace=wrap;html=1;fillColor=light-dark(#CC00CC,#CC00CC);fontColor=light-dark(#000000,#000000);labelBackgroundColor=none;" parent="Gdr_BZg6z6cCifK96JbI-120" vertex="1">
          <mxGeometry x="70" y="61" width="40" height="40" as="geometry" />
        </mxCell>
        <mxCell id="Gdr_BZg6z6cCifK96JbI-116" value="Submission Based&amp;nbsp;" style="text;html=1;align=left;verticalAlign=middle;whiteSpace=wrap;rounded=0;fontColor=light-dark(#000000,#000000);labelBackgroundColor=none;" parent="Gdr_BZg6z6cCifK96JbI-120" vertex="1">
          <mxGeometry x="119" y="10" width="131" height="40" as="geometry" />
        </mxCell>
        <mxCell id="Gdr_BZg6z6cCifK96JbI-118" value="Software Based" style="text;html=1;align=left;verticalAlign=middle;whiteSpace=wrap;rounded=0;fontColor=light-dark(#000000,#000000);labelBackgroundColor=none;" parent="Gdr_BZg6z6cCifK96JbI-120" vertex="1">
          <mxGeometry x="119" y="61" width="131" height="40" as="geometry" />
        </mxCell>
        <mxCell id="yptgTZZ8veA4d7DE2FyD-2" style="edgeStyle=orthogonalEdgeStyle;rounded=0;orthogonalLoop=1;jettySize=auto;html=1;exitX=0.5;exitY=0;exitDx=0;exitDy=0;entryX=0.7;entryY=1;entryDx=0;entryDy=0;entryPerimeter=0;" edge="1" parent="1" source="Gdr_BZg6z6cCifK96JbI-66" target="Gdr_BZg6z6cCifK96JbI-59">
          <mxGeometry relative="1" as="geometry" />
        </mxCell>
      </root>
    </mxGraphModel>
  </diagram>
</mxfile>
